<mxfile>
    <diagram id="jd_RC2NwaiC4DeVD9V_m" name="第 1 页">
        <mxGraphModel dx="831" dy="389" grid="1" gridSize="10" guides="1" tooltips="1" connect="1" arrows="1" fold="1" page="1" pageScale="1" pageWidth="827" pageHeight="1169" math="0" shadow="0">
            <root>
                <mxCell id="0"/>
                <mxCell id="1" parent="0"/>
                <mxCell id="10" style="edgeStyle=orthogonalEdgeStyle;rounded=0;orthogonalLoop=1;jettySize=auto;html=1;entryX=0.5;entryY=0;entryDx=0;entryDy=0;" edge="1" parent="1" source="2" target="3">
                    <mxGeometry relative="1" as="geometry"/>
                </mxCell>
                <mxCell id="2" value="&lt;div style=&quot;color: rgb(212 , 212 , 212) ; background-color: rgb(30 , 30 , 30) ; font-family: &amp;#34;consolas&amp;#34; , &amp;#34;courier new&amp;#34; , monospace ; font-size: 16px ; line-height: 22px&quot;&gt;&lt;div style=&quot;line-height: 22px&quot;&gt;&lt;span style=&quot;color: #dcdcaa&quot;&gt;legacyCreateRootFromDOMContainer&lt;/span&gt;(&lt;span style=&quot;color: #9cdcfe&quot;&gt;container&lt;/span&gt;,&amp;nbsp;&lt;span style=&quot;color: #9cdcfe&quot;&gt;forceHydrate&lt;/span&gt;)&lt;/div&gt;&lt;div style=&quot;line-height: 22px&quot;&gt;移除container内部的节点&lt;/div&gt;&lt;/div&gt;" style="rounded=0;whiteSpace=wrap;html=1;" vertex="1" parent="1">
                    <mxGeometry x="150" y="10" width="540" height="90" as="geometry"/>
                </mxCell>
                <mxCell id="3" value="" style="rounded=0;whiteSpace=wrap;html=1;" vertex="1" parent="1">
                    <mxGeometry x="114" y="140" width="600" height="100" as="geometry"/>
                </mxCell>
                <mxCell id="11" value="&lt;div style=&quot;background-color: rgb(30 , 30 , 30) ; font-family: &amp;#34;consolas&amp;#34; , &amp;#34;courier new&amp;#34; , monospace ; font-weight: normal ; font-size: 16px ; line-height: 22px&quot;&gt;&lt;div style=&quot;font-family: &amp;#34;consolas&amp;#34; , &amp;#34;courier new&amp;#34; , monospace ; line-height: 22px&quot;&gt;&lt;div&gt;&lt;font color=&quot;#d4d4d4&quot;&gt;&amp;nbsp;&lt;/font&gt;&lt;span style=&quot;color: rgb(220 , 220 , 170)&quot;&gt;createLegacyRoot&lt;/span&gt;&lt;font color=&quot;#d4d4d4&quot;&gt;(&lt;/font&gt;&lt;span style=&quot;color: rgb(156 , 220 , 254)&quot;&gt;container&lt;/span&gt;&lt;font color=&quot;#d4d4d4&quot;&gt;,&amp;nbsp;&lt;/font&gt;&lt;font color=&quot;#d4d4d4&quot;&gt;&amp;nbsp;&lt;/font&gt;&lt;span style=&quot;color: rgb(86 , 156 , 214)&quot;&gt;undefined&lt;/span&gt;&lt;font color=&quot;#d4d4d4&quot;&gt;)&lt;/font&gt;&lt;/div&gt;&lt;div&gt;&lt;div style=&quot;color: rgb(212 , 212 , 212) ; font-family: &amp;#34;consolas&amp;#34; , &amp;#34;courier new&amp;#34; , monospace ; line-height: 22px&quot;&gt;&lt;span style=&quot;color: #569cd6&quot;&gt;&amp;nbsp; =》new&lt;/span&gt;&amp;nbsp;&lt;span style=&quot;color: #4ec9b0&quot;&gt;ReactDOMBlockingRoot&lt;/span&gt;(&lt;span style=&quot;color: #9cdcfe&quot;&gt;container&lt;/span&gt;,&amp;nbsp;&lt;span style=&quot;color: #9cdcfe&quot;&gt;LegacyRoot&lt;/span&gt;,&amp;nbsp;&lt;span style=&quot;color: #9cdcfe&quot;&gt;options&lt;/span&gt;)&lt;/div&gt;&lt;/div&gt;&lt;/div&gt;&lt;/div&gt;" style="text;whiteSpace=wrap;html=1;" vertex="1" parent="1">
                    <mxGeometry x="140" y="150" width="550" height="80" as="geometry"/>
                </mxCell>
            </root>
        </mxGraphModel>
    </diagram>
</mxfile>